<?xml version="1.0" standalone="no"?>
<!DOCTYPE svg PUBLIC "-//W3C//DTD SVG 20010904//EN"
 "http://www.w3.org/TR/2001/REC-SVG-20010904/DTD/svg10.dtd">
<svg version="1.0" xmlns="http://www.w3.org/2000/svg"
 width="499.000000pt" height="499.000000pt" viewBox="0 0 499.000000 499.000000"
 preserveAspectRatio="xMidYMid meet">

<g transform="translate(0.000000,499.000000) scale(0.100000,-0.100000)"
fill="#000000" stroke="none">
<path d="M2330 4980 c-516 -36 -1014 -233 -1417 -562 -231 -188 -458 -463
-604 -730 -206 -379 -303 -765 -302 -1203 1 -397 79 -734 253 -1090 195 -397
487 -729 859 -976 642 -427 1432 -529 2173 -283 251 84 565 256 763 418 120
99 255 227 255 242 0 9 -4 13 -8 10 -5 -3 -9 1 -9 9 0 8 5 13 11 12 6 -1 10 4
8 11 -1 8 2 11 8 7 8 -5 7 -11 -1 -21 -7 -8 -7 -14 -1 -14 9 0 24 24 27 45 0
6 6 9 11 8 6 -1 11 4 11 12 0 8 -3 13 -6 12 -3 -1 -6 3 -6 8 0 6 3 9 6 8 3 -1
6 4 6 12 0 8 -3 13 -6 12 -3 -1 -6 3 -6 8 0 6 3 9 6 8 3 -1 6 4 6 12 0 8 -3
13 -6 12 -3 -1 -6 3 -6 8 0 6 3 9 6 8 3 -1 6 4 6 12 0 8 -3 13 -6 12 -3 -1 -6
3 -6 8 0 5 3 9 6 8 3 -1 6 4 6 11 0 18 -21 14 -47 -9 -20 -18 -29 -52 -10 -40
6 4 8 10 6 14 -3 4 1 8 8 8 7 0 13 -6 13 -13 0 -7 -3 -12 -6 -11 -3 1 -6 -2
-6 -8 0 -5 3 -9 6 -8 3 1 6 -4 6 -11 0 -7 -6 -13 -13 -13 -7 0 -12 5 -11 11 1
6 -4 10 -11 8 -8 -1 -11 2 -7 8 20 33 -20 -3 -103 -91 -134 -142 -310 -283
-474 -382 -384 -231 -768 -337 -1222 -337 -381 0 -713 78 -1041 245 -168 85
-276 154 -410 261 -740 592 -1044 1553 -784 2480 208 743 821 1358 1577 1583
222 66 407 91 666 91 290 0 490 -33 751 -121 384 -130 717 -352 1007 -671 72
-79 105 -102 105 -72 0 7 -3 12 -6 11 -3 -1 -6 3 -6 8 0 6 3 9 6 8 3 -1 6 4 6
12 0 8 -3 13 -6 12 -3 -1 -6 3 -6 8 0 6 3 9 6 8 3 -1 6 4 6 12 0 8 -3 13 -6
12 -3 -1 -6 3 -6 8 0 6 3 9 6 8 3 -1 6 4 6 12 0 8 -3 13 -6 12 -3 -1 -6 3 -6
8 0 6 3 9 6 8 3 -1 6 4 6 12 0 8 -5 13 -11 12 -5 -1 -11 3 -11 8 -3 21 -18 45
-27 45 -6 0 -6 -6 1 -14 8 -10 9 -16 1 -21 -6 -4 -9 -1 -8 7 2 7 -2 12 -8 11
-6 -1 -11 4 -11 12 0 8 4 12 9 9 4 -3 8 1 8 10 0 15 -135 143 -255 242 -267
219 -661 410 -1011 489 -216 48 -494 70 -714 55z m2013 -866 c-2 -5 -7 -9 -13
-9 -5 0 -10 -4 -10 -10 0 -5 5 -10 10 -10 16 0 12 -19 -4 -21 -9 -1 -14 3 -13
9 1 7 -3 11 -9 10 -6 -1 -11 4 -11 12 0 8 5 13 11 12 6 -1 10 3 9 10 -1 6 5
10 15 9 9 -2 16 -7 15 -12z m0 -80 c-2 -5 -7 -9 -13 -9 -5 0 -10 -4 -10 -10 0
-5 5 -10 10 -10 16 0 12 -19 -4 -21 -9 -1 -14 3 -13 9 1 7 -3 11 -9 10 -6 -1
-11 4 -11 12 0 8 5 13 11 12 6 -1 10 3 9 10 -1 6 5 10 15 9 9 -2 16 -7 15 -12z
m0 -3120 c-2 -5 -7 -9 -13 -9 -5 0 -10 -4 -10 -10 0 -5 5 -10 10 -10 16 0 12
-19 -4 -21 -9 -1 -14 3 -13 9 1 7 -3 11 -9 10 -6 -1 -11 4 -11 12 0 8 5 13 11
12 6 -1 10 3 9 10 -1 6 5 10 15 9 9 -2 16 -7 15 -12z"/>
<path d="M2500 4025 c-8 -2 -55 -9 -105 -15 -104 -14 -263 -64 -356 -110 -247
-125 -427 -351 -487 -614 -12 -50 -16 -120 -17 -236 0 -143 3 -176 23 -244 83
-287 291 -526 565 -650 103 -47 201 -78 462 -145 242 -62 319 -90 373 -136 54
-45 80 -128 62 -194 -40 -149 -248 -206 -473 -130 -84 28 -160 76 -248 155
-41 38 -103 81 -139 98 -60 29 -73 31 -170 31 -99 0 -110 -2 -171 -32 -157
-77 -250 -256 -220 -421 19 -101 55 -164 141 -245 332 -312 870 -455 1301
-347 405 102 699 376 801 746 31 114 31 354 0 468 -47 169 -129 310 -245 423
-181 176 -342 244 -886 372 -187 45 -267 79 -323 138 -102 108 -35 266 132
309 151 38 310 -19 486 -176 92 -83 173 -125 265 -140 232 -36 448 153 449
391 0 63 -32 164 -71 222 -34 52 -138 150 -234 221 -116 87 -319 181 -476 220
-131 32 -369 55 -439 41z"/>
<path d="M4355 3921 c-3 -5 -2 -12 3 -15 5 -3 9 1 9 9 0 17 -3 19 -12 6z"/>
</g>
</svg>
